<?xml version="1.0" encoding="UTF-8"?>
<svg version="1.1" viewBox="0 0 2048 1972" width="189" height="182" xmlns="http://www.w3.org/2000/svg">
<path transform="translate(774,107)" d="m0 0h29l32 3 26 4 32 8 22 7 25 10 27 13 18 11 21 14 12 9 10 8 10 9 8 7 5 4v2l4 2 9 10 13 14 11 14 13 18 14 22 10 18 13 26 11 28 8 24 8 29 7 36 5 34 4 44v21l-3 8-8 10-7 7-15 10-11 9-3 5-1 8 5 13 10 18 17 25 20 30 8 13 12 23 7 15 5 17 1 6v13l-4 15-4 8-7 9-6 4-15 3-24 2-6 3-2 2v9l6 32 5 21 1 7v11l-3 9-6 5-13 5-11 4-1 3 9 13 2 9-4 8-9 10-9 11-6 8-2 5 2 14 6 31v15l-4 12-7 10-7 6-18 7-10 1-9-6-7-7-10-13-14-21-15-26-11-23-11-27-9-28-3-11v-6l13-12 7-8 6-10 5-14 1-12-2-14-6-17-7-11-7-8-13-9-12-5-9-2h-22l-12 3-12 6-10 8-4 2-2 4-8 13-5 14-2 16 1 10 5 16 6 11 11 12 11 7 16 8 9 4 6 18 9 30 11 29 14 29 12 21 6 10 7 10 4 7v3h-10l-22-1-27-3-15-3-12-1-6-3-6-7-14-21-12-21-13-27-11-27-10-28-10-33-6-27-3-19-1-13v-6l11-7 11-10 9-14 6-13 3-14v-9l-3-13-7-16-6-8-7-8-11-8-12-5-8-2-14-1-16 2-12 4-12 7-8 8-8 14-5 14-2 9v17l4 15 8 16 10 11 16 10 5 4 3 5 7 38 11 44 9 29 9 24 14 35 10 23 4 10-7-1-30-12-28-13-20-10-10-7-5-6-4-8-12-28-12-37-11-45-7-42-2-20-1-6-2-36-2-32-1-11 5-6 12-6 10-9 8-11 7-16 3-11v-17l-4-13-4-10-8-11-9-9-11-7-12-5-16-3h-9l-12 2-10 4-11 8-8 7-10 15-5 14-1 6v22l3 12 8 16 11 12 11 8 8 7v12l3 37 3 31 2 27 3 15 3 14 4 22 8 37 4 16v7l-6-2-11-9-11-10-8-7-22-24-7-8-12-14-9-14-4-14-7-64-1-11v-96l1-33 3-32 3-25 1-12 2-3 18-6 11-7 10-9 9-14 5-17v-23l-4-16-6-12-9-11-13-9-11-5-6-1h-29l-13 4-13 8-11 11-8 14-4 11-2 11v16l4 14 6 11 10 13 11 11 1 6-3 23-4 43-1 17v103l-2 8-7-12-11-26-11-30-4-13-10-40-4-30-3-29-1-16v-81l3-27 5-28 5-17 4-6 13-4 29-4 26-2h41l30 3 27 6 17 5 19 8 16 9 13 10 14 12 13 13 9 13 8 16 14 34 13 28 10 18 10 15 14 19 9 10 9 11 12 11 18 12 16 8 19 8 19 5 10 1 3-1h7l7 8 6 10 9 10 8 7 16 8 9 2 17 1 12-2 13-5 11-6 9-8 10-14 5-15 2-11v-15l-4-16-4-9-6-9-5-6-11-8-14-7-15-3h-15l-15 3-12 5-14 11-10 15-7 11-6-1-9-2-7-1-8-3-17-7-15-10-12-11-15-15-12-16-12-20-12-23-14-35-7-15-13-23-8-11-9-11-11-11-17-13-15-10-19-10-27-10-25-8-24-5-24-3-17-1h-44l-23 1-18 2-8 1 3-9 18-42 9-19 6-10 5-4 12-1 33-1 41 2 24 3 28 6 24 8 28 11 29 14 14 8 11 7 15 10 15 11 16 14 12 11 9 8 7 8 9 9 9 11 20 26 3 5-1 6-8 16-5 14-2 16 5 19 8 16 11 12 10 6 12 6 3 1 11 1h12l15-3 10-4 15-10 9-9 7-11 5-16 1-9v-9l-3-16-6-15-8-11-9-8-10-6-9-4-11-2h-9l-9-1-7-6-8-11-9-12-24-28-8-8-7-8-4-3v-2l-4-2-9-9-13-10-16-12-19-13-17-11-16-9-23-12-16-8-21-8-24-7-46-10-23-3-28-2-32-1-1-3 7-11 11-14 9-10 9-11 15-16 7-8 8-6 14 1 25 3 25 5 4 2 10 1 27 6 31 9 22 8 21 9 22 11 15 9 19 12 12 8 17 13 13 11 10 8 4 5 8 7 14 14 7 8 10 12 6 10 1 7-5 16v22l2 10 5 13 8 12 9 9 11 7 12 5 12 2h12l16-3 16-8 11-8 8-10 7-14 3-12 1-10-2-16-4-13-5-10-8-10-8-7-10-6-13-5-9-2h-16l-11 4-6-1-8-9-10-13-18-20-11-11-8-7-8-8-11-9-12-10-19-14-20-13-15-9-18-10-15-8-24-10-30-11-31-9-36-9-26-4v-4l8-5 28-12 17-5zm-53 89v4h3l-1-4z" fill="#274890"/>
<path transform="translate(574,424)" d="m0 0h41l30 3 27 6 17 5 19 8 16 9 13 10 14 12 13 13 9 13 8 16 14 34 13 28 10 18 10 15 14 19 9 10 7 8-3 2-1 6h2v2h2l6 10 4 3 7 4 2 4 9 2 6 3v2l6 2 9 4 9 3 8 10 5 4 7 4 7 2 6 4 6 8v2h4l5 8 1 4 2 2v6l2 3-1 7h2l3 6v2h2l1 3 2 1v2l4 2 2 2 2 9 1 2-6 2-2 4-6 1-8 4-4-1-1-5h-2v-2l-4 1-2 3-5-1-7-1-9 3-4 9 3 1-13 5-13 9-4 4h-2l-2 4-8 13-5 14-2 16 1 10 5 16 6 11 11 12 11 7 16 8 9 4 6 18 9 30 11 29 14 29 12 21 6 10 7 10 4 7v3h-10l-22-1-27-3-15-3-12-1-6-3-6-7-14-21-12-21-13-27-11-27-10-28-10-33-6-27-3-19-1-13v-6l11-7 11-10 9-14 6-13 3-14v-9l-3-13-7-16-6-8-7-8-11-8-12-5-8-2-14-1-16 2-12 4-12 7-8 8-8 14-5 14-2 9v17l4 15 8 16 10 11 16 10 5 4 3 5 7 38 11 44 9 29 9 24 14 35 10 23 4 10-7-1-30-12-28-13-20-10-10-7-5-6-4-8-12-28-12-37-11-45-7-42-2-20-1-6-2-36-2-32-1-11 5-6 12-6 10-9 8-11 7-16 3-11v-17l-4-13-4-10-8-11-9-9-11-7-12-5-16-3h-9l-12 2-10 4-11 8-8 7-10 15-5 14-1 6v22l3 12 8 16 11 12 11 8 8 7v12l3 37 3 31 2 27 3 15 3 14 4 22 8 37 4 16v7l-6-2-11-9-11-10-8-7-22-24-7-8-12-14-9-14-4-14-7-64-1-11v-96l1-33 3-32 3-25 1-12 2-3 18-6 11-7 10-9 9-14 5-17v-23l-4-16-6-12-9-11-13-9-11-5-6-1h-29l-13 4-13 8-11 11-8 14-4 11-2 11v16l4 14 6 11 10 13 11 11 1 6-3 23-4 43-1 17v103l-2 8-7-12-11-26-11-30-4-13-10-40-4-30-3-29-1-16v-81l3-27 5-28 5-17 4-6 13-4 29-4z" fill="#3472B5"/>
<path transform="translate(1024,23)" d="m0 0 22 2 47 6 34 6 26 6 36 10 32 11 27 11 22 11 16 9 22 13 15 10 17 12 16 12 13 11 10 9 8 7 17 16 14 15 9 10 9 11 13 16 13 18 14 21 12 20 10 18 11 22 12 28 16 47 8 31 5 26 5 35 2 24v73l-3 31-8 49-12 48-11 32-11 25-12 25-13 23-12 19-8 12-28 38-9 11-12 13-14 15-10 10-8 7-16 15-11 9-16 13-10 7-3 2h-4l-1-15-5-29-3-26-2-5 1-8 8-13 11-13 8-10 2-4-1-7-9-11-1-5 5-4 11-3 8-3 4-6 5-8 2-6-1-12-4-15-8-22-1-4v-13l7-14 5-3 27-1 11-4 10-8 5-10 3-12v-25l-6-20-10-21-14-24-10-15-11-16-16-24-12-21-4-9 1-11 4-5 14-11 14-10 8-7 6-9 2-9v-31l-2-28-8-51-10-40-10-30-13-32-9-19-13-23-11-18-12-17-10-13-9-11-12-13-7-8-11-11-8-7-13-11-11-8-18-13-19-12-27-14-27-11-39-12-38-9-26-5-2-1z" fill="#3472B5"/>
<path transform="translate(653,175)" d="m0 0 14 1 25 3 25 5 4 2 10 1 27 6 31 9 22 8 21 9 22 11 15 9 19 12 12 8 17 13 13 11 10 8 4 5 8 7 14 14 7 8 10 12 6 10 1 7-5 16v22l2 10 5 13 8 12 9 9 11 7 12 5 12 2h12l18-3 2 2 4 2-5 1 2 2h-4l-1 3-4 1v3l-2 1v4l-7 1-5 2v6l-2-1-2 4h4l1 2v6l-2 3 7 6 1 5-1 3h2l2-9 3-3 1 9 1 13-1 9h-4v2l-4 2-4 4v11l-1 6 1 5 2 1-1 10 5 2v2h2l1 2 3 2h-2l-1 2-3-2-1 4 2 2-1 4-2 3 6-3h2v8l-8 6-5 3-5 1-2 5h-2l-1 5h4v2l-10-1h-15l-15 3-12 5-14 11-10 15-7 11-6-1-9-2-7-1-8-3-17-7-15-10-12-11-15-15-12-16-12-20-12-23-14-35-7-15-13-23-8-11-9-11-11-11-17-13-15-10-19-10-27-10-25-8-24-5-24-3-17-1h-44l-23 1-18 2-8 1 3-9 18-42 9-19 6-10 5-4 12-1 33-1 41 2 24 3 28 6 24 8 28 11 29 14 14 8 11 7 15 10 15 11 16 14 12 11 9 8 7 8 9 9 9 11 20 26 3 5-1 6-8 16-5 14-2 16 5 19 8 16 11 12 10 6 12 6 3 1 11 1h12l15-3 10-4 15-10 9-9 7-11 5-16 1-9v-9l-3-16-6-15-8-11-9-8-10-6-9-4-11-2h-9l-9-1-7-6-8-11-9-12-24-28-8-8-7-8-4-3v-2l-4-2-9-9-13-10-16-12-19-13-17-11-16-9-23-12-16-8-21-8-24-7-46-10-23-3-28-2-32-1-1-3 7-11 11-14 9-10 9-11 15-16 7-8zm68 21v4h3l-1-4z" fill="#2E5599"/>
<path transform="translate(855,652)" d="m0 0 4 1 13 12 18 12 16 8 19 8 19 5 10 1 3-1h7l7 8 6 10 9 10 8 7 16 8 9 2 17 1 12-2 13-5 11-6 9-8 10-14h1v6l-4 1 1 4v4l2 4 10 3 4 5 2 1-1-5 2-3 2 10h2l2 9 1-8-1-5 3 1v3h2l4 7v5l3-1 2 1 2 10 3 5 1 6-1 9-5-2 1 19h2l-2 7h3l-1 9-2 4-5 2 2 2-1 4-7 1-2 10 1 8 3 8 3 9 7 20 3 11v7h-2l3 10 2 6 2 10 2 5-11 4-1 3 9 13 2 9-4 8-9 10-9 11-6 8-2 5 2 14 6 31v15l-4 12-7 10-7 6-18 7-10 1-9-6-7-7-10-13-14-21-15-26-11-23-11-27-9-28-3-11v-6l13-12 7-8 6-10 5-14 1-12-2-14-6-17-7-11-7-8-13-9-12-5-9-2h-31l2-7 4-4 7-2 7 1 5 1 2-3h4v2h2l2 5 4-1 9-4h4l3-5 4-1-2-4-2-7-4-3v-2l-3-1v-3h-2l-3-5v-3h-2v-7l-2-5-1-5-2-3-4-10h-4l-4-6-5-5-4-3-8-2-9-6-8-9-3-3-12-4-10-5v-2l-6-2-9-2-3-5-9-5-4-5-3-5v-2h-2v-2h-2v-6z" fill="#2E5498"/>
<path transform="translate(597,298)" d="m0 0 32 1 26 2 25 4 24 6 25 9 22 9 25 12 16 9 11 7 15 10 15 11 16 14 12 11 9 8 7 8 9 9 9 11 20 26 3 5-1 6-8 16-5 14-2 16 5 19 8 16 4 6-2 1 1 6 2 4 4 3v2l10 3v2h2l3 11 10 3 2 5 4-1v4l-3 8h-7l-7 3-8 1-11-6-1-1h-5l-5 2-3-2v-2l-10-3-6-1-8-6-5-1-2 3-10-14-11-18-12-23-14-35-7-15-13-23-8-11-9-11-11-11-17-13-15-10-19-10-27-10-25-8-24-5-24-3-17-1h-44l-23 1-18 2-8 1 3-9 18-42 9-19 6-10 5-4 12-1z" fill="#3472B5"/>
<path transform="translate(774,107)" d="m0 0h29l32 3 26 4 32 8 22 7 25 10 27 13 18 11 21 14 12 9 10 8 10 9 8 7 5 4v2l4 2 9 10 13 14 11 14 9 12-1 2-3-2v-2l-5 1v3l1 5-1 2h-4l-7 1-2 4-3 5-2 6-5 2-3 8-7 1-4-3-4 1h-9l-5-1-4 2h-8l-2 4h-3l-13-16-15-16-9-9-8-7-8-8-11-9-12-10-19-14-20-13-15-9-18-10-15-8-24-10-30-11-31-9-36-9-26-4v-4l8-5 28-12 17-5z" fill="#2E5498"/>
<path transform="translate(733,195)" d="m0 0 9 2 7 2 2-2 7 1 12 4 9 4h6l9 5 6 1 1 2 16 5 5 2v2l9 2v2l6 1 10 6 10 5 13 9 10 4 6 6 3 1 3 3 7 6 4 5 6 5 5 6 8 5 7 7 3 8 3 4v2l5 2 3 3 2 1v2h2l3 11h2l3 12 3 16 3 2v14l-2 3-4-1-3 2 1 4 2 5 1 7-5 2 1 5-4 3-8 1-3 1v2l-8-1-1 2-10-11-7-8-14-15-2-1v-2l-4-2-9-9-13-10-16-12-19-13-17-11-16-9-23-12-16-8-21-8-24-7-8-2 4-12-3-31v-22l3-3 5-2 1-2 2 1v2l3 1-1-4z" fill="#3372B5"/>
<path transform="translate(1034,834)" d="m0 0 5 2 5 4 4 2 3 7 4 5 3 2 1 7 3 3 3 7 6 11 2 7 5 4 2 1v3h2l2 6 2 7 4 2 4 10 2 4 2 7 2 6v9l-1 7 1 16-1 11 1 16 4 8 2 2 4 1 7 36v15l-4 12-7 10-7 6-18 7-10 1-9-6-7-7-10-13-14-21-15-26-11-23-11-27-9-28-3-11v-6l13-12 7-8 6-10 5-14 1-12v-9h1l1 7 5-4 2-6h2l1-7-3-4 2-2 2-4 7-1-1-9z" fill="#3472B5"/>
<path transform="translate(700,1401)" d="m0 0h58l50 1 20 2 11 4 13 10 9 11 7 14 3 9 1 6v19l-2 8-6 12-5 7v6l10 19 3 10 1 33v37l-1 1-7 1h-33l-1-1-1-13-1-44-1-19-1-5-11-1-52-1h-60l-4-1-1-3v-121zm42 42-1 22v20l1 1h50l27-1 8-1 1-5v-32l-2-2-7-1-42-1z" fill="#2E5599"/>
<path transform="translate(1408,753)" d="m0 0h10l8 3 8 8 2 3 5 3 5 5 5 10 5 23 1 18v10l-3 15-2 6-4 10-5 12-1 11 1 3 2 1-9 12-9 10-7 8-16 17-10 10-8 7-16 15-11 9-16 13-10 7-3 2h-4l-1-15-5-29-3-26-2-5 1-8 8-13 11-13 8-10 2-4-1-7-9-11-1-5 5-4 11-3 8-3 4-6 5-8 2-6-1-12-4-17 5 2v-7l-2-6 2-3-1-4-1-3 5-4h2l1-7 9-5 3-3 12-3z" fill="#3499D2"/>
<path transform="translate(1771,1401)" d="m0 0h35l43 1 4 1 1 38-2 2-120 2-5 1-2 12-1 11-1 35v34l1 18 2 9 4 2 12 1h35l21-1 9-2 2-7 2-17 42 1 1 1v8l-4 17-4 9-7 11-7 8-9 6-13 5-18 3-17 1h-21l-23-2-15-4-11-7-7-6-9-13-5-12-3-13-1-8v-80l3-21 7-14 7-9 7-7 11-7 9-4 12-2z" fill="#2E5599"/>
<path transform="translate(725,771)" d="m0 0h14l3 1 2-1-4 18v17l4 15 8 16 10 11 16 10 5 4 3 5 7 38 11 44 9 29 9 24 14 35 10 23 4 10-7-1-30-12-28-13-20-10-10-7-5-6-4-8-12-28-12-37-11-45-7-42-1-12 6-1-1-10 4-6 2-2v-9l1-7v-8l-3-1-1-10-5-1 4-4 1-8 2-2 9-2v2h5z" fill="#3499D2"/>
<path transform="translate(1066,1402)" d="m0 0h41l3 3 12 40 13 42 12 38 5 10h2l4-11 7-27 19-58 8-28 3-8 1-1h42l-1 9-15 48-13 42-15 48-6 20-8 20-6 11-8 8-7 3h-11l-10-4-8-7-7-14-16-47-18-58-8-26-13-44z" fill="#2E5599"/>
<path transform="translate(1509,1401)" d="m0 0h14l25 1 17 3 12 6 10 9 7 8 7 12 3 11 1 8v150l-3 2h-34l-3-1-1-2-1-25-1-118-1-14-1-4-9-2-16-1h-33l-19 1-5 1-2 14-2 66h-42v-64l1-12 5-12 7-12 8-9 14-9 10-4 12-2z" fill="#2E5599"/>
<path transform="translate(597,298)" d="m0 0 32 1 26 2 25 4 24 6 14 5 1 5-2 16-1 30 2 18v7l1 6-1 4-6-1-36-12-24-5-24-3-17-1h-44l-23 1-18 2-8 1 3-9 18-42 9-19 6-10 5-4 12-1z" fill="#2E5498"/>
<path transform="translate(591,610)" d="m0 0 2 1 1 7 1 13-2 8-1 11-2 7-2 16-1 30v12l1 4 7 1 5 1h3l2-6-3-4v-4l-2-1 1-18 2-1 1 14 3 1 2-22h1l1 20 3 12 8 16 11 12 11 8 8 7v12l3 37 3 31 2 27 3 15 3 14 4 22 8 37 4 16v7l-6-2-11-9-11-10-8-7-22-24-7-8-12-14-9-14-4-14-7-64-1-11v-96l1-33 3-32z" fill="#3499D2"/>
<path transform="translate(764,112)" d="m0 0 4 1v2l9-2 7 1 5 1h2l1-2 23 1h21l9 2 9 3 14 2 9 2 6 2 4 1 9 6v2l8-1 10 2 11 4 5 4v2l7 1 7 5 8 3v2l5 2 7 4 8 2 2 1v2h2l5 6 5 5 2 3v3l5 2 2 2v4l-7 2 6 2 2 5h3v2h2l-1 3-6 1v5l-3 3-1 5-10 3-7-4-18-2-7-8-7-1-3-2-3-5v-2l-10-2h-6l-4-4-1-3h-13l-6-2-2-4-8-2-7-3-11-7-7-4h-11l-4-1-11-1v3l-10-3-25-9-31-9-32-8 4-1 2-4 3-2 1-9 2-8h15z" fill="#3372B5"/>
<path transform="translate(583,1402)" d="m0 0h39l2 2v139l-1 67-1 1h-38l-2-2-1-81-22-1-51-1-1-1v-39l19-1h55v-81z" fill="#2E5599"/>
<path transform="translate(493,478)" d="m0 0h1l2 9 3 8 3 14 5 4 5 1 6-2 2-1-2 13v16l4 14 6 11 10 13 11 11 1 6-3 23-4 43-1 17v103l-2 8-7-12-11-26-11-30-4-13-10-40-4-30-3-29-1-16v-81l3-27z" fill="#3499D2"/>
<path transform="translate(451,1402)" d="m0 0h36l6 2v206l-1 1h-21l-19-1-1-1-1-146v-60z" fill="#2E5599"/>
<path transform="translate(1315,1402)" d="m0 0h37l4 1 1 2v116l-1 89-2 1h-33l-5-1-1-2z" fill="#2E5599"/>
<path transform="translate(948,1403)" d="m0 0h40l1 1v205l-2 2h-18l-20-1-1-2-1-15v-189z" fill="#2E5599"/>
<path transform="translate(842,1803)" d="m0 0 19 1 7 3 5 4 12 17 11 17 7 11 11 17 9 15 7 11 4 10-2-9-1-13v-83h16l6 1v27l-1 94-4 2h-6l-1-1-1 2h-7l-8-5-9-10-11-16-13-19-18-27-12-20-1 65-1 31h-20l-1-7v-113l1-4zm18 26m75 83 1 2zm1 2 1 2z" fill="#3473B6"/>
<path transform="translate(653,175)" d="m0 0 14 1 25 3 25 5 4 2 5 1-1 3-6 1-2-4-7 1-1 1-1 9-1 5v31l1 13-4 17-1 2-8-1-30-6-30-3-15-1-32-1-1-3 7-11 11-14 9-10 9-11 15-16 7-8z" fill="#274990"/>
<path transform="translate(330,1401)" d="m0 0 45 1 1 1v24l-1 15-1 1h-175l-3-3-1-6v-31l1-1z" fill="#2E5498"/>
<path transform="translate(866,928)" d="m0 0h6l5 8 5 3 4 9 10 4 10 5 2 6 4 3 7 2 1 3-2 1 6 9v12l6 1 4 4 2 7 4 2v6l3 3-1 9 2 7 4 6 3 7 4 10 4 7-1 7-1 3-6 1-5 1-5 2-14-1-7-3-5-5-5-6-5-4-1-5-5-4-2-6-3-3-1-2-5 1-3 1-10-20 1-2 3 4 3 1-1-5-3-3-6-12-3-9 1-2h2l-3-11-3-3-1-8-7-10 2-8 2-2-1-6 4-2 1-4-2-5z" fill="#3B8DC8"/>
<path transform="translate(1512,1802)" d="m0 0h26l14 2 11 4 9 6 8 9 7 15 3 14v27l-4 17-6 12-9 10-9 6-15 4-8 1h-26l-14-3-9-4-6-4-8-8-6-10-5-16-1-6v-24l5-19 6-12 9-10 10-6 10-4zm10 20-18 2-8 3-6 7-4 13-2 16v12l3 16 4 8 7 6 16 5 7 1h19l10-3 9-6 6-8 4-11 1-7v-23l-3-14-6-9-8-5-13-3z" fill="#3473B5"/>
<path transform="translate(1101,1802)" d="m0 0h18l18 2 10 3 10 7 8 8 7 14 3 13 1 18-2 21-4 13-6 9-10 10-10 5-13 3-8 1h-23l-16-3-10-5-10-9-5-7-6-16-2-11v-24l4-17 8-16 10-10 14-7zm4 19-17 3-8 5-5 6-4 13-1 6v25l3 11 5 9 5 5 7 3 17 4h18l13-4 6-4 7-8 3-7 2-14v-23l-3-12-5-8-9-6-10-3-7-1z" fill="#3473B6"/>
<path transform="translate(1739,1803)" d="m0 0h13l23 2 11 3 8 7 1 5-3 3-3 1h-13l-28-2-16 1-11 3-6 5-4 9-2 11v30l4 13 6 9 4 3 18 4h19l12-3 9-6 5-10v-14h-17l-15-2-3-3-1-3v-9l3-3 26-1h25l4 4 1 17-2 15-5 14-6 8-7 7-11 5-15 3-18 1-18-2-13-5-10-9-6-7-7-14-3-13-1-21 3-17 5-13 7-10 9-8 10-5 8-2z" fill="#3473B6"/>
<path transform="translate(267,1459)" d="m0 0h39l1 2v111l-1 39h-29l-11-1-1-1-1-35v-88l1-26z" fill="#2E5598"/>
<path transform="translate(631,1803)" d="m0 0 14 1 5 1 1 31v20l70 1v-52l3-1 17 1 1 1v80l-1 41-2 1h-9l-6-1-1-2v-49h-73v50l-1 1h-18l-1-1v-122z" fill="#3474B6"/>
<path transform="translate(227,1805)" d="m0 0h89l1 1v18h-70l-1 33 52-1 2 1v11l-1 7-2 1-50 1-1 31h71l1 17-7 2-82 1-3-2v-120z" fill="#3473B6"/>
<path transform="translate(458,1803)" d="m0 0h37l15 3 6 3 4 5 1 7-2 5-5 1-26-3h-26l-12 2-5 3-5 10-3 14v25l4 16 4 7 8 5 11 3 16 1 19-3 24-8 4 1 1 8-3 6-4 5-8 5-17 4-10 1h-25l-12-3-10-5-10-9-7-11-4-10-3-16v-19l3-16 5-12 7-9 7-7 16-8z" fill="#3473B6"/>
<path transform="translate(30,1806)" d="m0 0h97l1 3v11l-2 3-16 2-20 1-1 3-3 98-1 1-18-1-1-2v-88l1-12h-37l-2-2v-15z" fill="#3473B6"/>
<path transform="translate(1273,1805)" d="m0 0h20l1 1v103l69-2 3 3v16l-2 1-38 1h-51l-1-1-1-82z" fill="#3472B5"/>
<path transform="translate(1910,1803)" d="m0 0h10l9 3 10 9 12 17 13 19v2h2l2-5 12-17 11-17 6-7 9-4h8l4 2-4 8-10 14-18 27-6 11-5 13-1 39-2 8-4 3-7 1-5-2-1-2v-32l-2-16-5-11-8-15-14-21-13-18-3-6z" fill="#3473B6"/>
<path transform="translate(1761,1486)" d="m0 0h92l1 2v13l-1 24-1 1-82 1-9-1-1-1v-37z" fill="#2E5599"/>
<path transform="translate(557,320)" d="m0 0h19l18 3 8 4 4 6 5 2 7 8 4 5-1 4v6l-3 4h-2v2l-9 4-16 3-9 1-14 3-2-1v2l-11-1h-9l-6-2-4-8v-8l2-10 5-12h2l2-7 7-7z" fill="#3472B5"/>
<path transform="translate(1408,753)" d="m0 0h10l8 3 8 8 2 3 5 3 5 5 5 10 5 23 1 18v10l-3 15-2 6-4 10-5 12h-3v-24l-2-2-1-19-1-13h-2l-6-12-7-10-2-3-1-5-6-5-9-9-8-1-4-5-9 2-6 9-4 8-1 3h-3l-1-5 2-3-1-4-1-3 5-4h2l1-7 9-5 3-3 12-3z" fill="#3B8EC9"/>
<path transform="translate(1434,1542)" d="m0 0h38l2 1v67l-2 1h-30l-9-1-1-1-1-8v-35l1-22z" fill="#2E569A"/>
<path transform="translate(700,1542)" d="m0 0h39l2 2v66l-3 1h-37l-1-1-1-8v-56z" fill="#2E579A"/>
<path transform="translate(725,771)" d="m0 0h14l3 1 2-1-4 18v17l1 9-2 5h3l1 4-2 2-5 2-2 2h-11l1 4 1 1v5h-3-2v-2h-2l-2-3-2-5v-9l1-7v-8l-3-1-1-10-5-1 4-4 1-8 2-2 9-2v2h5z" fill="#3B8DC8"/>
<path transform="translate(798,775)" d="m0 0h8l10 3 5 4 3 5 1 4v12l-5 8-5 4-9 4h-7l-10-6-7-11v-11l4-8 8-7z" fill="#274991"/>
<path transform="translate(962,496)" d="m0 0h12l8 3 5 4 4 10-1 9-5 8-5 4-8 4h-8l-8-4-5-5-4-8-1-10 6-11 5-3z" fill="#274A92"/>
<path transform="translate(1027,656)" d="m0 0h7l11 4 6 7 1 3v14l-4 6-7 6-7 3h-9l-10-5-5-8-1-4v-8l4-10 5-5zm2 19 1 7 2 1-1-8z" fill="#274A92"/>
<path transform="translate(1045,363)" d="m0 0h13l8 4 4 5 2 6v11l-4 8-7 6-9 3-10-2-8-6-5-10 1-10 3-8 8-6zm3 19 2 5 1-2-1-3z" fill="#274B92"/>
<path transform="translate(575,508)" d="m0 0h12l8 4 8 9 1 3v9l-4 9-8 7-5 2h-9l-8-4-6-7-2-5-1-8 2-9 5-7z" fill="#274A91"/>
<path transform="translate(667,668)" d="m0 0h10l10 4 7 8 1 2v12l-4 8-7 6-5 3h-9l-9-5-6-7-3-6v-7l6-12 6-5z" fill="#274991"/>
<path transform="translate(941,852)" d="m0 0h9l8 3 5 5 4 5 2 8-1 6-6 9-9 6-6 2-7-2-9-6-5-10v-8l4-10 4-5z" fill="#274A91"/>
<path transform="translate(774,107)" d="m0 0h29l23 2v3l1 2-6 1h-11l-18-2-1 3h-6l-3-1-7-1-7 1v-2l-3 1-1-1-1 3-7 1-8-1-1 8-1 9-5 4-1 2h-8l-26-4v-4l8-5 28-12 17-5z" fill="#2E569A"/>
<path transform="translate(1113,1035)" d="m0 0h2l2 12v15l-4 12-7 10-7 6-18 7-10 1-9-6-3-3v-5l9-4h9v2l10-3 5-2 6-2 4-8 3-12 2-9 4-9h2z" fill="#2E5599"/>
<path transform="translate(597,298)" d="m0 0 32 1 26 2 25 4 24 6 10 4-2 4-3 2-9 1-2 6-5-2-15-13-7-3-16-2-9-1-1-1-10-1h-25l-28-1-14 1-7-3v-2l10-1z" fill="#284B93"/>
<path transform="translate(609,680)" d="m0 0h1l1 20 3 12 4 9-1 5-5 5-2 1-14-2-4 3-6-1-1-1v-25l2-3v12l1 4 7 1 5 1h3l2-6-3-4v-4l-2-1 1-18 2-1 1 14 3 1z" fill="#3B8DC8"/>
<path transform="translate(700,1401)" d="m0 0h5l-4 2v16l1 5-1 2v8l3 10 3 4-2 3 2 5 1 1 1 9 1 3-2 3-1 13-1 7-1 3h-2v2h-2l1 3-1 15v11l-2-3v-121z" fill="#3472B5"/>
<path transform="translate(740,115)" d="m0 0h4l-2 9-2 10-2 5-13-1-19-3v-4l8-5z" fill="#284B92"/>
<path transform="translate(887,1008)" d="m0 0 4 1 6 4 1 3 9 4v4l-4 2-1 3 8-2 2 2-1 3v1h1l2 7 3 3-1 2h2v3l-5-1-11-5-4-5-3-5-3-7-4-4-3-5v-6z" fill="#3498D1"/>
<path transform="translate(1356,510)" d="m0 0 3 1-1 6-5 7-2 5-2 8-3 7h-2l-4-9 1-11 4-5z" fill="#2E589C"/>
<path transform="translate(574,424)" d="m0 0h41l12 1 4 2v2l-22-1-6 1-17-2-6 1-10-1v-2z" fill="#2F5DA0"/>
<path transform="translate(609,680)" d="m0 0h1l1 20 3 12 1 5-3-2-5-1-5-3v-4l-2-1 1-18 2-1 1 14 3 1z" fill="#3599D2"/>
<path transform="translate(264,1486)" d="m0 0 2 4 1 24v15l1 6-1 7-2 32h-1z" fill="#3485C3"/>
<path transform="translate(195,1418)" d="m0 0h1l1 13 5 9v2h113v1h-116l-3-3-1-6z" fill="#3484C2"/>
<path transform="translate(1066,1402)" d="m0 0 13 1 2 7 3 2-1 3-5-1-8 1-4-10z" fill="#284C94"/>
<path transform="translate(975,330)" d="m0 0 4 2 7 10 2 3v5h-9l-2-1 1-8-3-4-1-5z" fill="#284C94"/>
<path transform="translate(838,1050)" d="m0 0h2l6 10 4 10-7-1-4-2-2-6-1-4 1-6z" fill="#3475B7"/>
<path transform="translate(489,529)" d="m0 0h1l1 16 1 21v30l-1 5h-1l-1-8z" fill="#3474B6"/>
<path transform="translate(1197,1403)" d="m0 0h11l8 4 1 5-1 1h-6l-2-3-6-3-1 2-6 1-1-4z" fill="#274890"/>
<path transform="translate(1080,1089)" d="m0 0 4 1 3 2-1 3-10 3-7-1-5-3v-3l5-1 5 2z" fill="#284E95"/>
<path transform="translate(540,583)" d="m0 0 4 1 6 7-1 9-2 2-5-5-4-10z" fill="#3475B7"/>
<path transform="translate(998,1088)" d="m0 0h6l5 8v3h-10l-3-2-1-6z" fill="#2E599C"/>
<path transform="translate(1776,1604)" d="m0 0 7 1 1 4-2 1h-21l1-4z" fill="#274990"/>
<path transform="translate(523,374)" d="m0 0 3 1v2h6l2 2v3l-16 2 3-9z" fill="#295198"/>
<path transform="translate(1586,1604)" d="m0 0h10l7 3v3h-16l-2-2z" fill="#274890"/>
<path transform="translate(1231,1402)" d="m0 0h7l-1 9-1 3-4-1-4-8v-2z" fill="#284C93"/>
<path transform="translate(1024,23)" d="m0 0 22 2 4 3h-2l-1 2-21-4-2-1z" fill="#3271B3"/>
<path transform="translate(972,639)" d="m0 0h2l-1 5-6 10-4-1v-5l5-4 2-4z" fill="#284F96"/>
<path transform="translate(494,485)" d="m0 0 3 4 3 11-1 7-3-1 1-3-1-4h-2v-5l-1-2z" fill="#3B8EC9"/>
<path transform="translate(785,202)" d="m0 0 7 1 10 4-1 3-14-4z" fill="#295298"/>
<path transform="translate(659,673)" d="m0 0 1 2-1 2 8-2 2 1-2 4-4 1v2h-4v-5l-3-1z" fill="#2E569A"/>
<path transform="translate(195,1418)" d="m0 0h1l1 13 6 12-6-1-2-8z" fill="#3474B7"/>
<path transform="translate(1390,433)" d="m0 0 2 3 1 23-2 4-1-4z" fill="#2E5498"/>
<path transform="translate(700,1401)" d="m0 0h5l-4 2v16l1 5-1 2v6l-2 2v-32z" fill="#3475B7"/>
<path transform="translate(1337,855)" d="m0 0 4 1-2 9-4-2-1-5z" fill="#3476B8"/>
<path transform="translate(892,1046)" d="m0 0 4 2 3 6v2l-4 1-5-10z" fill="#3A8FCA"/>
<path transform="translate(668,687)" d="m0 0h3l-1 6-2 1h-6l1-5z" fill="#2E5498"/>
<path transform="translate(731,130)" d="m0 0h2l1 9-9-1 4-1-1-6z" fill="#2E5B9E"/>
<path transform="translate(875,1017)" d="m0 0 4 4v3l6 2 1 3-2 2h-3l-6-12z" fill="#399AD2"/>
<path transform="translate(1091,437)" d="m0 0 2 1-2 4h-5l-1 3-7 2-4-1 16-8z" fill="#2F5EA1"/>
<path transform="translate(1038,393)" d="m0 0 3 1v7l1 2-5-2-3-3v-2z" fill="#2E589C"/>
<path transform="translate(1097,690)" d="m0 0 4 3v5l-3 2h-3z" fill="#2E5CA0"/>
<path transform="translate(669,706)" d="m0 0h2l2 2 3-1 3 4h-9l-4-3h3z" fill="#2E579B"/>
<path transform="translate(604,701)" d="m0 0 3 1 1 2v7l-3-1-1-2z" fill="#3A88C5"/>
<path transform="translate(1073,315)" d="m0 0 6 3 3 3-1 2-9-4z" fill="#2F5B9E"/>
<path transform="translate(965,170)" d="m0 0 6 2 2 4-7-1z" fill="#2E5498"/>
</svg>
